<svg width="160" height="120" viewBox="0 0 160 120" fill="none" xmlns="http://www.w3.org/2000/svg">
<path d="M29.4301 40.4778L55.439 105.5L54.439 21L32.1622 32.9635C29.4721 34.4081 28.2961 37.6427 29.4301 40.4778Z" fill="#71717A"/>
<path d="M16.0201 69.5185L50.0112 103.336L25.6853 48.7583L15.5509 61.5367C13.6535 63.9291 13.8555 67.3649 16.0201 69.5185Z" fill="#3F3F46"/>
<path fill-rule="evenodd" clip-rule="evenodd" d="M67.4414 10C64.1277 10 61.4414 12.6863 61.4414 16V100C61.4414 103.314 64.1277 106 67.4414 106H135.441C138.755 106 141.441 103.314 141.441 100V16C141.441 12.6863 138.755 10 135.441 10H67.4414ZM84.0977 33.0117V81H104.066C113.805 81 120.766 76.043 120.766 67.4648C120.766 60.2578 115.844 56.3203 110.078 55.7578V55.3359C114.824 54.1758 118.305 50.6602 118.305 44.8242C118.305 37.4766 112.68 33.0117 104.102 33.0117H84.0977ZM93.5195 52.9805V40.1484H101.922C106.352 40.1484 108.953 42.5391 108.953 46.4414C108.953 50.625 106.141 52.9805 99.7773 52.9805H93.5195ZM93.5195 73.8633V59.5898H102.52C108.074 59.5898 111.098 62.3672 111.098 66.9023C111.098 71.4727 108.039 73.8633 100.551 73.8633H93.5195Z" fill="#D4D4D8"/>
</svg>
